<?xml version="1.0" encoding="utf-8"?>
<!DOCTYPE svg PUBLIC "-//W3C//DTD SVG 1.0//EN" "http://www.w3.org/TR/2001/REC-SVG-20010904/DTD/svg10.dtd">
<svg version="1.0" xmlns="http://www.w3.org/2000/svg" width="1300px" height="1320px" viewBox="0 0 1300 1320" preserveAspectRatio="xMidYMid meet">
 <g fill="#ffffff">
  <path d="M0 660 l0 -660 650 0 650 0 0 660 0 660 -650 0 -650 0 0 -660z m808.6 601 c32.7 -11.3 55.1 -51.6 46.4 -83.7 -4.5 -16.6 -16.7 -32.2 -33 -42 -15.2 -9.1 -25.8 -12.7 -53.6 -18.3 -33.4 -6.6 -53.7 -12.5 -80.9 -23.2 -78.6 -31.2 -147.1 -85.6 -196.3 -155.8 -43.9 -62.8 -70.5 -138.5 -76.3 -217.5 -1.4 -20 -0.6 -64 1.6 -82.5 11.9 -101 56.1 -191.7 127.6 -261.5 65.1 -63.6 142.5 -102.9 232.9 -118.1 23.6 -4 25.3 -4.4 34.9 -8.4 23.2 -9.5 40.4 -30.2 45.6 -54.8 2.9 -13.6 0.9 -27.8 -5.9 -41.7 -14 -28.3 -47.5 -43.5 -85.1 -38.6 -51.8 6.9 -117.7 27.3 -168 52.1 -60.3 29.7 -108.7 64 -154.8 109.8 -28 27.7 -48.1 51.4 -68.5 80.7 -40.3 57.6 -71.9 126.3 -87.2 189.8 -2.8 11.4 -3 13.4 -2 17.9 1.6 7.5 4 12.3 10.8 21.4 12.4 16.6 21.4 32.9 26.1 47.4 5.6 17.2 7.3 27.7 7.8 48.5 0.6 22.6 -0.3 31.9 -4.7 48.9 -5.4 20.9 -13.9 38.4 -27.9 56.9 -8.2 11 -10.5 15.4 -12.1 23 -1.1 5.4 -0.9 6.7 2.5 20.5 4.8 19.3 16.6 54.7 25 74.7 24.3 58.1 53.2 105.8 94.1 155 12.8 15.4 50.1 53 66.4 66.9 24.7 21.1 62.3 47.6 89.3 63 17.2 9.8 55.3 28.4 70.8 34.6 17.7 7 54.5 19.1 71.4 23.5 24.9 6.4 63.8 13.6 80 14.7 6.3 0.5 16.6 -1 23.1 -3.2z m71.4 -192 c118.3 -10.4 224.7 -74.3 289.2 -173.5 19.3 -29.7 32 -55.9 42.8 -88.5 27.9 -84.3 26.2 -166.5 -5.2 -252 -6.5 -17.9 -22.5 -50 -33.8 -68 -54.7 -87.2 -142.5 -149.2 -242.6 -171.4 -70.6 -15.6 -144.3 -10.5 -212.4 14.9 -15.6 5.8 -49.4 22.2 -64 31 -31 18.7 -63.3 45.4 -87 72 -53.4 59.8 -85.1 128.8 -96.6 210 -2.4 17.3 -3 60.6 -1 79.2 11.3 106.8 63.2 201 146.5 266.1 37 28.9 82.7 52.6 126.6 65.6 23.1 6.8 51.2 12.3 75 14.5 13 1.2 49.1 1.3 62.5 0.1z m-694.2 -272.1 c3.5 -0.5 10.1 -2.1 14.5 -3.6 53.2 -16.7 87.7 -72.8 76.8 -124.8 -9 -43.1 -40.7 -76.3 -83.6 -87.6 -7.8 -2.1 -11.2 -2.4 -25 -2.3 -14.1 0 -17.2 0.4 -25.6 2.7 -19.3 5.3 -36.5 15.3 -50.5 29.2 -17 17 -27.4 36.4 -31.9 59.7 -8.8 45.7 17.6 95.5 62 116.9 21.3 10.3 40.8 13.3 63.3 9.8z"/>
  <path d="M817 924.5 c-43.1 -5.5 -83.7 -22.9 -118.6 -50.9 -47.2 -37.9 -79 -96.9 -85.5 -158.6 -1.5 -14.7 -0.6 -53.3 1.5 -66 17.5 -102 94.4 -179.1 195.1 -195.6 22.2 -3.6 60.1 -3.5 81 0.1 23.3 4.1 42.7 10.2 63 20 18 8.6 25.4 13.1 40.2 24.2 26.8 20 48.7 45.3 65.3 75.2 12.9 23.4 22 50.8 26.6 80.4 2.2 13.9 2.5 53.5 0.6 67.2 -8.9 62.7 -40.6 118.4 -88.7 155.8 -18.5 14.4 -41.6 27.5 -61.8 35.1 -10.6 4 -31 9.4 -44.2 11.7 -15.9 2.8 -57.1 3.6 -74.5 1.4z m48.8 -53.6 c73.9 -8 135.1 -57.5 158.2 -127.7 6.8 -20.7 8.5 -31.7 8.5 -54.7 0 -29.8 -3.1 -42.3 -13.1 -53.4 -3.1 -3.4 -7 -6.3 -12.2 -8.8 -6.9 -3.5 -8.3 -3.8 -15.6 -3.8 -7 0.1 -9 0.5 -14.7 3.3 -9.5 4.5 -15.4 11.3 -22.7 25.8 -7.3 14.5 -14 24.1 -23 33.2 -12.6 12.6 -27.9 21.8 -45 27.2 -13.7 4.3 -22.9 5.3 -41.5 4.7 -19.3 -0.6 -30.4 -3.1 -45.3 -10.1 -25.9 -12.3 -43.9 -31.5 -56.4 -59.9 -5.4 -12.4 -11.4 -19.3 -20.8 -23.9 -5.8 -2.9 -7.6 -3.3 -14.7 -3.3 -6.9 0 -8.9 0.4 -14.7 3.2 -18.7 8.8 -26 26.9 -26.2 64.8 0 18 1 26.6 5.1 43 18.7 74.9 81.7 130.6 158.3 140 13.4 1.6 23.6 1.8 35.8 0.4z"/>
 </g>
 <g fill="#442c2c">
  <path d="M782.5 1267.3 c-18.9 -1.7 -55.5 -8.5 -80 -14.8 -16.9 -4.4 -53.7 -16.5 -71.4 -23.5 -15.5 -6.2 -53.6 -24.8 -70.8 -34.6 -27 -15.4 -64.6 -41.9 -89.3 -63 -16.3 -13.9 -53.6 -51.5 -66.4 -66.9 -40.9 -49.2 -69.9 -97 -94.1 -155 -12.5 -30 -28.5 -81.9 -28.5 -92.5 0 -5.5 1.9 -13.8 4.3 -18.5 1.1 -2.2 5.1 -8.1 8.8 -13.2 14 -18.5 22.5 -36 27.9 -56.9 4.3 -16.6 5.3 -26.6 4.7 -45.9 -1.2 -36.4 -11.6 -63.8 -36.5 -96.5 -5.1 -6.7 -8.1 -14.3 -8.9 -22.4 -1.2 -13.4 13.9 -63.6 31.5 -104.1 25 -58 58.6 -111.1 99.3 -157 13.5 -15.3 43 -44.3 57.9 -57.1 76.5 -65.3 169.5 -110.2 268 -129.3 23.6 -4.6 32 -5.4 47.5 -4.8 15.4 0.6 26.4 3.1 37.3 8.6 37.2 18.8 49.5 65.5 27.1 102.7 -7.7 12.7 -21.7 24.5 -36 30.4 -9.6 4 -11.3 4.4 -34.9 8.4 -78.1 13.2 -146.8 44.5 -206.5 94.1 -86.2 71.6 -140.9 173 -154 285.5 -2.2 19 -3 57 -1.6 76.5 7.8 105.7 51.4 201.9 125.1 275.5 35 35.1 70 60.6 112.5 82 36.9 18.6 70.8 30.1 115.9 39 27.8 5.6 38.4 9.2 53.6 18.3 16.3 9.8 28.5 25.4 33 42 3.1 11.4 2.5 29.4 -1.4 41 -8 24 -24.3 41.5 -45 48.7 -5.4 1.8 -20 4.2 -23.6 3.8 -0.8 -0.1 -3.3 -0.3 -5.5 -0.5z"/>
  <path d="M814.5 1071.9 c-14.3 -1.4 -35.9 -4.8 -50 -8 -31.2 -7.1 -55.5 -15.8 -86 -30.9 -50.4 -24.9 -94.7 -60.7 -130.5 -105.5 -39.2 -49 -67.2 -111.9 -78 -174.8 -4.2 -24.9 -5.2 -40.3 -4.7 -71.7 0.6 -29.8 1.5 -39.8 5.8 -62.5 16.9 -90 65.3 -171.7 134.9 -228 26.4 -21.4 45.7 -33.6 76.3 -48.5 48.9 -23.7 94.1 -35.3 149.2 -38 126.7 -6.3 248.6 50.8 325.5 152.5 64.8 85.5 91.3 197.9 71.4 302 -18.6 97.1 -71.5 181.6 -150.1 239.7 -57.1 42.1 -124.3 67.5 -195.3 73.8 -13.5 1.2 -55.5 1.1 -68.5 -0.1z m74 -151.8 c13.2 -2.3 33.6 -7.7 44.2 -11.7 20.2 -7.6 43.3 -20.7 61.8 -35.1 48.1 -37.4 79.9 -93.3 88.7 -155.8 1.9 -13.4 1.6 -47.5 -0.6 -61.2 -7.1 -46.3 -25.2 -86.3 -54 -120 -15.9 -18.6 -36.5 -36.3 -56.1 -48.3 -10.7 -6.6 -35.9 -18.4 -46.5 -21.8 -29.3 -9.4 -47.6 -12.3 -77.5 -12.3 -41.9 0.1 -78.3 9.7 -115.2 30.4 -46.6 26.2 -84.3 70.4 -103.5 121.5 -4.5 12.2 -10.1 32.9 -12.3 46.2 -2.2 12.9 -3.1 45.8 -1.6 60 11.4 108.8 96.1 195.8 204.1 209.5 16.9 2.1 52.6 1.4 68.5 -1.4z"/>
  <path d="M827 873.5 c-69.4 -8.5 -127.7 -54.7 -152.3 -120.5 -8.3 -22.3 -11.2 -39.2 -11.1 -65.5 0.2 -40.8 7.1 -58.8 25.8 -67.6 12 -5.6 24.6 -5.6 36.3 0.1 8.8 4.4 15 11.5 20.3 23.7 7.5 17 15.1 28.2 26.7 39.4 20.1 19.2 44.1 29.5 71.9 30.6 20.8 0.9 38.5 -2.8 55.6 -11.6 22.6 -11.6 38.1 -27.8 51 -53.5 7.2 -14.4 13.2 -21.2 22.7 -25.9 6.2 -3 7.2 -3.2 17.7 -3.2 10.7 0 11.2 0.1 18.6 3.8 13.2 6.5 20 16.2 23.5 33.2 1.4 7.2 1.8 13.7 1.8 32 0 20.1 -0.3 24.4 -2.3 34.4 -10.4 51.2 -39 93.6 -82.2 122.1 -35.6 23.3 -80.9 33.8 -124 28.5z"/>
  <path d="M156 801 c-25.3 -2.6 -51.7 -16 -69.7 -35.4 -20.1 -21.5 -30.4 -47.4 -30.5 -76.6 -0.2 -31.8 11.1 -59 33.6 -81.5 18.9 -18.8 43.8 -30.4 69.8 -32.3 44.8 -3.4 84.6 17.2 107.8 55.7 15.8 26.5 19.7 63 9.8 92.6 -11.5 34.4 -39.4 62.1 -73.3 72.8 -14.6 4.6 -31.7 6.3 -47.5 4.7z"/>
 </g>
</svg>