<svg width="1024" height="1024" viewBox="0 0 1024 1024" fill="none" xmlns="http://www.w3.org/2000/svg">
  <path fill-rule="evenodd" clip-rule="evenodd" d="M512 1024C794.77 1024 1024 794.77 1024 512C1024 229.23 794.77 0 512 0C229.23 0 0 229.23 0 512C0 794.77 229.23 1024 512 1024ZM256 512C256 371.07 371.07 256 512 256C652.93 256 768 371.07 768 512C768 652.93 652.93 768 512 768C371.07 768 256 652.93 256 512ZM512 448C483.49 448 460.37 471.12 460.37 499.63C460.37 528.14 483.49 551.26 512 551.26C540.51 551.26 563.63 528.14 563.63 499.63C563.63 471.12 540.51 448 512 448Z" fill="#4B3838"/>
</svg>